<mxfile host="65bd71144e">
    <diagram id="4PxTyKddGnHqfptHG2Hu" name="Page-1">
        <mxGraphModel dx="1599" dy="947" grid="1" gridSize="10" guides="1" tooltips="1" connect="1" arrows="1" fold="1" page="1" pageScale="1" pageWidth="850" pageHeight="1100" math="0" shadow="0">
            <root>
                <mxCell id="0"/>
                <mxCell id="1" parent="0"/>
                <mxCell id="31" value="" style="rounded=1;whiteSpace=wrap;html=1;fontSize=6;fontColor=#FFFFFF;" parent="1" vertex="1">
                    <mxGeometry x="450" y="110" width="340" height="180" as="geometry"/>
                </mxCell>
                <mxCell id="18" style="edgeStyle=none;html=1;exitX=0.465;exitY=0.957;exitDx=0;exitDy=0;dashed=1;startArrow=none;exitPerimeter=0;" parent="1" source="17" target="13" edge="1">
                    <mxGeometry relative="1" as="geometry"/>
                </mxCell>
                <mxCell id="16" value="&lt;b&gt;User Password / Cert&lt;/b&gt;&lt;b&gt;&lt;br&gt;&lt;/b&gt;" style="swimlane;fontStyle=0;childLayout=stackLayout;horizontal=1;startSize=30;horizontalStack=0;resizeParent=1;resizeParentMax=0;resizeLast=0;collapsible=1;marginBottom=0;whiteSpace=wrap;html=1;fillColor=#ffcd28;strokeColor=#d79b00;strokeWidth=3;gradientColor=#ffa500;" parent="1" vertex="1">
                    <mxGeometry x="278.7642857142858" y="48.64" width="171.9047619047619" height="61.36375274119756" as="geometry"/>
                </mxCell>
                <mxCell id="17" value="??.array[] //external input" style="text;strokeColor=#d6b656;fillColor=#fff2cc;align=left;verticalAlign=middle;spacingLeft=4;spacingRight=4;overflow=hidden;points=[[0,0.5],[1,0.5]];portConstraint=eastwest;rotatable=0;whiteSpace=wrap;html=1;gradientColor=#ffd966;" parent="16" vertex="1">
                    <mxGeometry y="30" width="171.9047619047619" height="31.36375274119756" as="geometry"/>
                </mxCell>
                <mxCell id="34" style="edgeStyle=none;html=1;exitX=1;exitY=0;exitDx=0;exitDy=0;fontSize=6;fontColor=#FFFFFF;" parent="1" source="25" target="32" edge="1">
                    <mxGeometry relative="1" as="geometry"/>
                </mxCell>
                <mxCell id="25" value="&lt;b&gt;Leaf Key&lt;br&gt;&lt;/b&gt;" style="swimlane;fontStyle=0;childLayout=stackLayout;horizontal=1;startSize=30;horizontalStack=0;resizeParent=1;resizeParentMax=0;resizeLast=0;collapsible=1;marginBottom=0;whiteSpace=wrap;html=1;fillColor=#f8cecc;strokeColor=#b85450;strokeWidth=3;gradientColor=#ea6b66;" parent="1" vertex="1">
                    <mxGeometry x="470" y="220" width="171.9" height="61.36375274119756" as="geometry"/>
                </mxCell>
                <mxCell id="26" value="KEK.array[] //DONOT export!" style="text;strokeColor=#996185;fillColor=#e6d0de;align=left;verticalAlign=middle;spacingLeft=4;spacingRight=4;overflow=hidden;points=[[0,0.5],[1,0.5]];portConstraint=eastwest;rotatable=0;whiteSpace=wrap;html=1;gradientColor=#d5739d;" parent="25" vertex="1">
                    <mxGeometry y="30" width="171.9" height="31.36375274119756" as="geometry"/>
                </mxCell>
                <mxCell id="27" style="edgeStyle=none;html=1;exitX=1;exitY=0.5;exitDx=0;exitDy=0;entryX=0;entryY=0.25;entryDx=0;entryDy=0;" parent="1" source="24" target="25" edge="1">
                    <mxGeometry relative="1" as="geometry"/>
                </mxCell>
                <mxCell id="33" style="edgeStyle=none;html=1;exitX=1;exitY=0.75;exitDx=0;exitDy=0;fontSize=6;fontColor=#FFFFFF;" parent="1" source="21" target="32" edge="1">
                    <mxGeometry relative="1" as="geometry"/>
                </mxCell>
                <mxCell id="21" value="&lt;b&gt;KEK&lt;/b&gt;" style="swimlane;fontStyle=0;childLayout=stackLayout;horizontal=1;startSize=30;horizontalStack=0;resizeParent=1;resizeParentMax=0;resizeLast=0;collapsible=1;marginBottom=0;whiteSpace=wrap;html=1;fillColor=#f8cecc;strokeColor=#b85450;strokeWidth=3;gradientColor=#ea6b66;" parent="1" vertex="1">
                    <mxGeometry x="470" y="130" width="171.9" height="61.36375274119756" as="geometry"/>
                </mxCell>
                <mxCell id="22" value="KEK.array[] //DONOT export!" style="text;strokeColor=#996185;fillColor=#e6d0de;align=left;verticalAlign=middle;spacingLeft=4;spacingRight=4;overflow=hidden;points=[[0,0.5],[1,0.5]];portConstraint=eastwest;rotatable=0;whiteSpace=wrap;html=1;gradientColor=#d5739d;" parent="21" vertex="1">
                    <mxGeometry y="30" width="171.9" height="31.36375274119756" as="geometry"/>
                </mxCell>
                <mxCell id="23" style="edgeStyle=none;html=1;entryX=0;entryY=0.25;entryDx=0;entryDy=0;exitX=1;exitY=0.5;exitDx=0;exitDy=0;" parent="1" source="13" target="21" edge="1">
                    <mxGeometry relative="1" as="geometry">
                        <mxPoint x="540" y="215" as="sourcePoint"/>
                    </mxGeometry>
                </mxCell>
                <mxCell id="4" value="&lt;b&gt;EK - Endorsement Key/Cert&amp;nbsp;&lt;/b&gt;&lt;b&gt;&lt;br&gt;&lt;/b&gt;" style="swimlane;fontStyle=0;childLayout=stackLayout;horizontal=1;startSize=30;horizontalStack=0;resizeParent=1;resizeParentMax=0;resizeLast=0;collapsible=1;marginBottom=0;whiteSpace=wrap;html=1;fillColor=#a20025;fontColor=#ffffff;strokeColor=#000000;strokeWidth=3;" parent="1" vertex="1">
                    <mxGeometry x="20.00000000000001" y="155" width="258.76190476190476" height="90.00014842355631" as="geometry"/>
                </mxCell>
                <mxCell id="5" value="EK.private[] //DONOT export!" style="text;strokeColor=#A50040;fillColor=#d80073;align=left;verticalAlign=middle;spacingLeft=4;spacingRight=4;overflow=hidden;points=[[0,0.5],[1,0.5]];portConstraint=eastwest;rotatable=0;whiteSpace=wrap;html=1;fontColor=#ffffff;" parent="4" vertex="1">
                    <mxGeometry y="30" width="258.76190476190476" height="20.000074211778152" as="geometry"/>
                </mxCell>
                <mxCell id="6" value="EK.prublic[] //&lt;u&gt;exportable&lt;/u&gt;" style="text;strokeColor=#005700;fillColor=#008a00;align=left;verticalAlign=middle;spacingLeft=4;spacingRight=4;overflow=hidden;points=[[0,0.5],[1,0.5]];portConstraint=eastwest;rotatable=0;whiteSpace=wrap;html=1;fontColor=#ffffff;" parent="4" vertex="1">
                    <mxGeometry y="50.000074211778156" width="258.76190476190476" height="20.000074211778152" as="geometry"/>
                </mxCell>
                <mxCell id="7" value="EK.prublic.signature.SELF[] //&lt;u&gt;&amp;nbsp;optional if&amp;nbsp;&lt;/u&gt;&lt;u style=&quot;border-color: var(--border-color);&quot;&gt;exportable&lt;/u&gt;" style="text;strokeColor=#005700;fillColor=#008a00;align=left;verticalAlign=middle;spacingLeft=4;spacingRight=4;overflow=hidden;points=[[0,0.5],[1,0.5]];portConstraint=eastwest;rotatable=0;whiteSpace=wrap;html=1;fontColor=#ffffff;" parent="4" vertex="1">
                    <mxGeometry y="70.00014842355631" width="258.76190476190476" height="20" as="geometry"/>
                </mxCell>
                <mxCell id="14" style="edgeStyle=none;html=1;exitX=1;exitY=0.25;exitDx=0;exitDy=0;dashed=1;" parent="1" source="4" target="13" edge="1">
                    <mxGeometry relative="1" as="geometry">
                        <mxPoint x="330" y="200" as="sourcePoint"/>
                    </mxGeometry>
                </mxCell>
                <mxCell id="24" value="TRNG" style="ellipse;whiteSpace=wrap;html=1;fillColor=#fff2cc;strokeColor=#d6b656;fontStyle=1" parent="1" vertex="1">
                    <mxGeometry x="310" y="220" width="90" height="30" as="geometry"/>
                </mxCell>
                <mxCell id="13" value="KDF" style="ellipse;whiteSpace=wrap;html=1;fontStyle=1;fillColor=#fff2cc;strokeColor=#d6b656;" parent="1" vertex="1">
                    <mxGeometry x="310" y="171.36" width="90" height="30" as="geometry"/>
                </mxCell>
                <mxCell id="15" style="edgeStyle=none;html=1;exitX=1;exitY=0.75;exitDx=0;exitDy=0;dashed=1;" parent="1" source="11" target="13" edge="1">
                    <mxGeometry relative="1" as="geometry"/>
                </mxCell>
                <mxCell id="11" value="&lt;b&gt;SRK - Storage Root Key&lt;/b&gt;" style="swimlane;fontStyle=0;childLayout=stackLayout;horizontal=1;startSize=30;horizontalStack=0;resizeParent=1;resizeParentMax=0;resizeLast=0;collapsible=1;marginBottom=0;whiteSpace=wrap;html=1;fillColor=#a20025;fontColor=#ffffff;strokeColor=#000000;strokeWidth=3;" parent="1" vertex="1">
                    <mxGeometry x="80.00428571428574" y="60" width="171.9047619047619" height="61.36375274119756" as="geometry"/>
                </mxCell>
                <mxCell id="12" value="SRK.array[] //DONOT export!" style="text;strokeColor=#A50040;fillColor=#d80073;align=left;verticalAlign=middle;spacingLeft=4;spacingRight=4;overflow=hidden;points=[[0,0.5],[1,0.5]];portConstraint=eastwest;rotatable=0;whiteSpace=wrap;html=1;fontColor=#ffffff;" parent="11" vertex="1">
                    <mxGeometry y="30" width="171.9047619047619" height="31.36375274119756" as="geometry"/>
                </mxCell>
                <mxCell id="62" style="edgeStyle=none;html=1;exitX=0.5;exitY=1;exitDx=0;exitDy=0;entryX=0.5;entryY=0;entryDx=0;entryDy=0;" edge="1" parent="1" source="32" target="35">
                    <mxGeometry relative="1" as="geometry"/>
                </mxCell>
                <mxCell id="32" value="AES.ECB" style="ellipse;whiteSpace=wrap;html=1;fillColor=#fff2cc;strokeColor=#d6b656;fontStyle=1" parent="1" vertex="1">
                    <mxGeometry x="665" y="171.36" width="90" height="30" as="geometry"/>
                </mxCell>
                <mxCell id="35" value="&lt;b&gt;Encrypted Key&lt;br&gt;&lt;/b&gt;" style="swimlane;fontStyle=0;childLayout=stackLayout;horizontal=1;startSize=30;horizontalStack=0;resizeParent=1;resizeParentMax=0;resizeLast=0;collapsible=1;marginBottom=0;whiteSpace=wrap;html=1;fillColor=#008a00;fontColor=#ffffff;strokeColor=#005700;strokeWidth=3;" parent="1" vertex="1">
                    <mxGeometry x="660" y="220" width="100" height="60" as="geometry"/>
                </mxCell>
                <mxCell id="36" value="EK.array[]//export" style="text;strokeColor=#2D7600;fillColor=#60a917;align=left;verticalAlign=middle;spacingLeft=4;spacingRight=4;overflow=hidden;points=[[0,0.5],[1,0.5]];portConstraint=eastwest;rotatable=0;whiteSpace=wrap;html=1;fontColor=#ffffff;" parent="35" vertex="1">
                    <mxGeometry y="30" width="100" height="30" as="geometry"/>
                </mxCell>
                <mxCell id="45" style="edgeStyle=none;html=1;exitX=1;exitY=0.75;exitDx=0;exitDy=0;entryX=0;entryY=0.5;entryDx=0;entryDy=0;fontSize=6;fontColor=#FFFFFF;" parent="1" source="42" target="44" edge="1">
                    <mxGeometry relative="1" as="geometry"/>
                </mxCell>
                <mxCell id="42" value="&lt;b&gt;Plain-Text&lt;/b&gt;" style="swimlane;fontStyle=0;childLayout=stackLayout;horizontal=1;startSize=30;horizontalStack=0;resizeParent=1;resizeParentMax=0;resizeLast=0;collapsible=1;marginBottom=0;whiteSpace=wrap;html=1;fillColor=#647687;fontColor=#ffffff;strokeColor=#314354;strokeWidth=3;" parent="1" vertex="1">
                    <mxGeometry x="50.00428571428574" y="275.68" width="171.9047619047619" height="61.36375274119756" as="geometry"/>
                </mxCell>
                <mxCell id="43" value="DATA.array[] //?exportable?" style="text;strokeColor=#6D1F00;fillColor=#a0522d;align=left;verticalAlign=middle;spacingLeft=4;spacingRight=4;overflow=hidden;points=[[0,0.5],[1,0.5]];portConstraint=eastwest;rotatable=0;whiteSpace=wrap;html=1;fontColor=#ffffff;" parent="42" vertex="1">
                    <mxGeometry y="30" width="171.9047619047619" height="31.36375274119756" as="geometry"/>
                </mxCell>
                <mxCell id="44" value="Encrypt" style="ellipse;whiteSpace=wrap;html=1;fillColor=#fff2cc;strokeColor=#d6b656;fontStyle=1" parent="1" vertex="1">
                    <mxGeometry x="310" y="290" width="80" height="30" as="geometry"/>
                </mxCell>
                <mxCell id="46" style="edgeStyle=none;html=1;exitX=0;exitY=0.5;exitDx=0;exitDy=0;entryX=1;entryY=0.5;entryDx=0;entryDy=0;fontSize=6;fontColor=#FFFFFF;" parent="1" source="26" target="44" edge="1">
                    <mxGeometry relative="1" as="geometry"/>
                </mxCell>
                <mxCell id="58" value="&lt;font style=&quot;font-size: 10px;&quot;&gt;&lt;span style=&quot;border-color: var(--border-color);&quot;&gt;&lt;b style=&quot;text-decoration-line: underline;&quot;&gt;KDF生成KEK时的输入组合，取决于最终密文的使用场景：&lt;/b&gt;&lt;br&gt;&lt;ul&gt;&lt;li style=&quot;&quot;&gt;&lt;font style=&quot;font-size: 10px;&quot;&gt;&lt;span style=&quot;border-color: var(--border-color);&quot;&gt;&lt;span style=&quot;background-color: initial;&quot;&gt;如需解密与用户绑定则使用用户密码或证书或为KDF的一个参数&lt;/span&gt;&lt;/span&gt;&lt;/font&gt;&lt;/li&gt;&lt;li style=&quot;&quot;&gt;&lt;font style=&quot;font-size: 10px;&quot;&gt;&lt;span style=&quot;border-color: var(--border-color);&quot;&gt;&lt;span style=&quot;background-color: initial; border-color: var(--border-color);&quot;&gt;在如需&lt;/span&gt;&lt;span style=&quot;background-color: initial; border-color: var(--border-color);&quot;&gt;外部可复现KEK（某些安全传输/数据转储场景）则使用EK的公钥&lt;/span&gt;&lt;/span&gt;&lt;/font&gt;&lt;/li&gt;&lt;li style=&quot;&quot;&gt;&lt;font style=&quot;font-size: 10px;&quot;&gt;&lt;span style=&quot;border-color: var(--border-color);&quot;&gt;&lt;span style=&quot;background-color: initial; border-color: var(--border-color);&quot;&gt;如需解密绑定到设备则使用私钥(此时SRK不能使用）&lt;/span&gt;&lt;/span&gt;&lt;/font&gt;&lt;/li&gt;&lt;li style=&quot;&quot;&gt;&lt;font style=&quot;font-size: 10px;&quot;&gt;&lt;span style=&quot;border-color: var(--border-color);&quot;&gt;&lt;span style=&quot;background-color: initial; border-color: var(--border-color);&quot;&gt;可考虑增加其他特定参数作为DKF盐（比如序列号）以进一步增强密钥安全性&lt;/span&gt;&lt;/span&gt;&lt;/font&gt;&lt;/li&gt;&lt;/ul&gt;&lt;/span&gt;&lt;/font&gt;" style="text;html=1;strokeColor=none;fillColor=none;align=left;verticalAlign=middle;whiteSpace=wrap;rounded=0;fontSize=6;fontColor=#000000;" parent="1" vertex="1">
                    <mxGeometry x="30" y="380" width="388" height="90" as="geometry"/>
                </mxCell>
                <mxCell id="61" value="" style="group" parent="1" vertex="1" connectable="0">
                    <mxGeometry x="475" y="360" width="290" height="120" as="geometry"/>
                </mxCell>
                <mxCell id="53" value="" style="rounded=1;whiteSpace=wrap;html=1;fontSize=6;fontColor=#FFFFFF;" parent="61" vertex="1">
                    <mxGeometry width="290" height="120" as="geometry"/>
                </mxCell>
                <mxCell id="57" value="&lt;b&gt;Output img. with formatted header&lt;/b&gt;" style="text;strokeColor=#666666;fillColor=#f5f5f5;align=center;verticalAlign=middle;spacingLeft=4;spacingRight=4;overflow=hidden;points=[[0,0.5],[1,0.5]];portConstraint=eastwest;rotatable=0;whiteSpace=wrap;html=1;gradientColor=#b3b3b3;" parent="61" vertex="1">
                    <mxGeometry x="10" y="15.639999999999986" width="270" height="31.36" as="geometry"/>
                </mxCell>
                <mxCell id="47" value="&lt;b&gt;Cipher-Text&lt;/b&gt;" style="swimlane;fontStyle=0;childLayout=stackLayout;horizontal=1;startSize=30;horizontalStack=0;resizeParent=1;resizeParentMax=0;resizeLast=0;collapsible=1;marginBottom=0;whiteSpace=wrap;html=1;fillColor=#647687;fontColor=#ffffff;strokeColor=#314354;strokeWidth=3;" parent="61" vertex="1">
                    <mxGeometry x="10.004285714285743" y="47" width="171.9047619047619" height="61.36375274119756" as="geometry"/>
                </mxCell>
                <mxCell id="48" value="DATA.array[] //exportable" style="text;strokeColor=#666666;fillColor=#f5f5f5;align=left;verticalAlign=middle;spacingLeft=4;spacingRight=4;overflow=hidden;points=[[0,0.5],[1,0.5]];portConstraint=eastwest;rotatable=0;whiteSpace=wrap;html=1;gradientColor=#b3b3b3;" parent="47" vertex="1">
                    <mxGeometry y="30" width="171.9047619047619" height="31.36375274119756" as="geometry"/>
                </mxCell>
                <mxCell id="50" value="&lt;b&gt;EK&lt;br&gt;&lt;/b&gt;" style="swimlane;fontStyle=0;childLayout=stackLayout;horizontal=1;startSize=30;horizontalStack=0;resizeParent=1;resizeParentMax=0;resizeLast=0;collapsible=1;marginBottom=0;whiteSpace=wrap;html=1;fillColor=#008a00;fontColor=#ffffff;strokeColor=#005700;strokeWidth=3;" parent="61" vertex="1">
                    <mxGeometry x="181.90999999999997" y="47" width="100" height="61.36375274119756" as="geometry"/>
                </mxCell>
                <mxCell id="51" value="EK.array[]" style="text;strokeColor=#2D7600;fillColor=#60a917;align=left;verticalAlign=middle;spacingLeft=4;spacingRight=4;overflow=hidden;points=[[0,0.5],[1,0.5]];portConstraint=eastwest;rotatable=0;whiteSpace=wrap;html=1;fontColor=#ffffff;" parent="50" vertex="1">
                    <mxGeometry y="30" width="100" height="31.36375274119756" as="geometry"/>
                </mxCell>
                <mxCell id="52" style="edgeStyle=none;html=1;exitX=0.47;exitY=0.982;exitDx=0;exitDy=0;fontSize=6;fontColor=#FFFFFF;exitPerimeter=0;entryX=0.5;entryY=0;entryDx=0;entryDy=0;" parent="1" source="36" target="50" edge="1">
                    <mxGeometry relative="1" as="geometry">
                        <mxPoint x="749.9999999999998" y="360" as="targetPoint"/>
                    </mxGeometry>
                </mxCell>
                <mxCell id="49" style="edgeStyle=none;html=1;exitX=1;exitY=1;exitDx=0;exitDy=0;fontSize=6;fontColor=#FFFFFF;entryX=0;entryY=0.75;entryDx=0;entryDy=0;" parent="1" source="44" target="47" edge="1">
                    <mxGeometry relative="1" as="geometry"/>
                </mxCell>
                <mxCell id="63" value="&lt;b&gt;Key Wrap&lt;/b&gt;" style="text;html=1;strokeColor=none;fillColor=none;align=center;verticalAlign=middle;whiteSpace=wrap;rounded=0;" vertex="1" parent="1">
                    <mxGeometry x="726" y="114" width="60" height="30" as="geometry"/>
                </mxCell>
            </root>
        </mxGraphModel>
    </diagram>
</mxfile>